<?xml version="1.0" encoding="UTF-8" standalone="no"?>
<svg viewBox="0 0 358.14304 499.98947" xmlns="http://www.w3.org/2000/svg" xmlns:xlink="http://www.w3.org/1999/xlink">
<defs>
<linearGradient id="linearGradient4098-670-3-7">
<stop offset="0" stop-color="#ffb142"/>
<stop offset="1" stop-color="#c87600"/>
</linearGradient>
<linearGradient gradientUnits="userSpaceOnUse" id="linearGradient7617" x1="2477.62265" x2="2477.6226" xlink:href="#linearGradient4098-670-3-7" y1="380.57366" y2="394.65378"/>
<linearGradient gradientUnits="userSpaceOnUse" id="linearGradient7621" x1="2477.62267" x2="2477.62261" xlink:href="#linearGradient4098-670-3-7" y1="380.57366" y2="394.65378"/>
<linearGradient gradientUnits="userSpaceOnUse" id="linearGradient7623" x1="2477.62267" x2="2477.62262" xlink:href="#linearGradient4098-670-3-7" y1="380.57366" y2="394.65378"/>
<linearGradient gradientUnits="userSpaceOnUse" id="linearGradient7629" x1="2468.92071" x2="2477.41067" xlink:href="#linearGradient4098-670-3-7"/>
</defs>
<g transform="matrix(.94751,0,0,.94751,-2163.7161,116.66291)">
<path d="m2467.6225,379.04976a14.25,23.02385 0 0,1 -28.5,0 14.25,23.02385 0 1,1 28.5,0z" fill="url(#linearGradient7617)" stroke="#000" stroke-linecap="round" stroke-linejoin="round" stroke-width="5"/>
<path d="m2433.1225,379.04976a14.25,23.02385 0 0,1 -28.5,0 14.25,23.02385 0 1,1 28.5,0z" fill="url(#linearGradient7617)" stroke="#000" stroke-linecap="round" stroke-linejoin="round" stroke-width="5"/>
<path d="m2450.1225,379.04976a14.25,23.02385 0 0,1 -28.5,0 14.25,23.02385 0 1,1 28.5,0z" fill="url(#linearGradient7621)" stroke="#000" stroke-linecap="round" stroke-linejoin="round" stroke-width="5"/>
<path d="m2544.6225,379.04976a14.25,23.02385 0 0,1 -28.5,0 14.25,23.02385 0 1,1 28.5,0z" fill="url(#linearGradient7623)" stroke="#000" stroke-linecap="round" stroke-linejoin="round" stroke-width="5"/>
<path d="m2510.1225,379.04976a14.25,23.02385 0 0,1 -28.5,0 14.25,23.02385 0 1,1 28.5,0z" fill="url(#linearGradient7617)" stroke="#000" stroke-linecap="round" stroke-linejoin="round" stroke-width="5"/>
<path d="m2527.1225,379.04976a14.25,23.02385 0 0,1 -28.5,0 14.25,23.02385 0 1,1 28.5,0z" fill="url(#linearGradient7621)" stroke="#000" stroke-linecap="round" stroke-linejoin="round" stroke-width="5"/>
<path d="m2418.8727,356.02196c-5.8064,0-10.7803,5.6304-13,13.6875 18.971,5.0743 39.8141,8.0342 61.7187,8.4375-.2984-12.2848-6.5429-22.125-14.2187-22.125-3.3009,0-6.3333,1.8275-8.75,4.875-2.4167-3.0475-5.4491-4.875-8.75-4.875-3.1858,0-6.1261,1.7049-8.5,4.5625-2.374-2.8576-5.3143-4.5625-8.5-4.5625zm77,0c-7.6562,0-13.8907,9.7905-14.2188,22.0313 21.8806-.7044 42.6159-3.9836 61.4375-9.3438-2.3472-7.5156-7.1571-12.6875-12.7187-12.6875-3.3009,0-6.3333,1.8275-8.75,4.875-2.4167-3.0475-5.4491-4.875-8.75-4.875-3.1858,0-6.1261,1.7049-8.5,4.5625-2.374-2.8576-5.3143-4.5625-8.5-4.5625z" fill-opacity=".3137"/>
<path d="m2638.2809,202.96096a165.5642,165.5642 0 0,1 -331.1284,0 165.5642,165.5642 0 1,1 331.1284,0z" fill="#784421" stroke="#000" stroke-linecap="round" stroke-width="5"/>
<path d="m2409.4193,360.68086c-5.8064,0-1.227,11.7224-3.4467,19.7795 18.971,5.0743 39.8141,8.0342 61.7187,8.4375-.2984-12.2848-6.5429-22.125-14.2187-22.125-3.3009,0-6.3333,1.8275-8.75,4.875-2.4167-3.0475-5.4491-4.875-8.75-4.875-3.1858,0-6.1261,1.7049-8.5,4.5625-2.374-2.8576-14.8676-10.6545-18.0533-10.6545zm86.5533,6.092c-7.6562,0-13.8907,9.7905-14.2188,22.0313 21.8806-.7044 42.6159-3.9836 61.4375-9.3438-2.3472-7.5156 5.5806-16.8411.019-16.8411-3.3009,0-19.071,5.9811-21.4877,9.0286-2.4167-3.0475-5.4491-4.875-8.75-4.875-3.1858,0-6.1261,1.7049-8.5,4.5625-2.374-2.8576-5.3143-4.5625-8.5-4.5625z" fill-opacity=".3137"/>
<path d="m2554.5531,285.74116c-26.4999-4.9236-2.2474,21.631-6.3107,31.2326-16.0634-7.8984-9.9427,18.2499-17.2066,25.5138-13.7638-.7361-15.9123,13.1432-25.5138,17.2066-11.6016-6.4367-20.1563,6.3107-31.2327,6.3107s-17.6311-12.2474-31.2326-6.3107c-9.6016-4.0634-11.75-17.4427-25.5138-17.2066-7.2639-7.2639-6.1433-34.9122-17.2066-25.5138-4.0634-9.6016 14.6892-38.1562-6.3107-31.2326 0-11.0764 22.2473-31.6311 6.3107-31.2327 4.0634-9.6015 24.4426-16.75 17.2066-25.5138 14.5277-14.5278 34.5936-23.5173 56.7464-23.5173s42.2188,8.9895 56.7465,23.5173c-10.7361,5.2638 13.1432,15.9123 17.2066,25.5138-17.9366-.8984 6.3107,20.1563 6.3107,31.2327z" fill="#fff" stroke="#000" stroke-linecap="round" stroke-linejoin="round" stroke-width="4.99998"/>
<path d="m2316.4393,148.32776c2.6975-7.0025 5.3886-13.6745 9.4149-21.7719l38.9909,75.3234c5.9133,10.186 7.7496,9.3677 18.2938,12.994 52.9706,14.866 104.5689,29.37 187.7379-4.8976 12.4303-41.3327 31.0869-59.9921 50.622-78.9954 3.8927,6.6301 6.4158,14.5299 7.2235,18.0961-15.1069,17.5697-30.2576,30.0962-41.3583,74.708 5.7786,25.9858 9.8544,73.5347-14.4714,131.0585-60.6523,31.3042-132.8064,35.5419-203.7969-1.2977-14.3533-38.1917-26.8202-100.77-23.472-140.4368z" fill="#454837" stroke="#000" stroke-linecap="round" stroke-linejoin="round" stroke-width="5"/>
<path d="m2596.1512,95.35608c-61.7984-72.30204-169.7281-61.82502-249.2572,2.74124 83.1981-40.94283 168.6696-43.77138 249.2572-2.74124z" fill-opacity=".3137"/>
<path d="m2426.7657,75.16076c-31.2344,0-56.6033,29.3314-56.6033,65.4717s25.3689,65.4718 56.6033,65.4718c18.3557,0 34.6444-10.1409 44.9848-25.8295 10.3397,15.6999 26.6639,25.8295 45.0273,25.8295 31.2345,0 56.6033-29.3315 56.6034-65.4718s-25.3689-65.4717-56.6034-65.4717c-18.3613,0-34.6874,10.1326-45.0273,25.8295-10.3406-15.6852-26.6314-25.8295-44.9848-25.8295z" fill="#fff" stroke="#000" stroke-linecap="round" stroke-width="5"/>
<g transform="translate(2283.6227,34.89696)">
<path d="m184.55268,110.16501a16.38711,16.38711 0 1,1 -32.77422,0 16.38711,16.38711 0 1,1 32.77422,0z" stroke="#000" stroke-linecap="round" stroke-width="5"/>
<path d="m166.50028,104.42584a4.25,4.25 0 0,1 -8.5,0 4.25,4.25 0 1,1 8.5,0z" fill="#fff"/>
</g>
<g transform="translate(2283.6227,34.89696)">
<path d="m226.05268,110.16501a16.38711,16.38711 0 1,1 -32.77422,0 16.38711,16.38711 0 1,1 32.77422,0z" stroke="#000" stroke-linecap="round" stroke-width="5"/>
<path d="m208.00028,104.42584a4.25,4.25 0 0,1 -8.5,0 4.25,4.25 0 1,1 8.5,0z" fill="#fff"/>
</g>
<g transform="translate(2283.6227,34.89696)">
<path d="m55.7364,131.04476c48.1112,17.30003-14.16343,94.14271 37.81914,161.19179 9.60838,12.39326-57.86796,2.09077-81.72278-66.58505-23.19831-66.78576-1.13236-107.53908 43.90364-94.60674z" fill="#784421" fill-rule="evenodd" stroke="#000" stroke-width="5"/>
<path d="m4.0625,160.84375c-3.45178,16.50581-1.29853,38.67265 7.78125,64.8125 23.85482,68.67582 91.32713,78.987 81.71875,66.59375-4.10892-5.29984-7.52039-10.67453-10.3125-16.0625-18.9515-4.54141-54.0478-24.37623-69.90625-70.03125-5.87955-16.92667-8.85389-32.18045-9.28125-45.3125zm71.28125,6.34375c-.88285,8.53607-1.85621,17.61189-2.28125,27.125 .99329-9.79063 2.07939-18.94113 2.28125-27.125z" fill-opacity=".3137" fill-rule="evenodd"/>
</g>
<path d="m2356.766,156.89436c-13.3887-4.609-27.2211,7.5838-29.8652,14.1799 13.5123-3.4523 19.7196-4.4258 23.2184-1.3807-1.5068,3.3714-17.4083,6.7419-22.3374,28.8711 12.4288-8.6166 22.3036-18.5755 26.2724-14.4831-2.8815,5.0338-6.1995,14.4974-3.9635,23.8808 7.1415-9.4245 14.4387-19.3785 21.1415-19.6478" fill="#784421" fill-rule="evenodd" stroke="#000" stroke-linecap="round" stroke-linejoin="round" stroke-width="5"/>
<path d="m2375.0731,236.39196c61.4299,16.4502 132.0683,21.4628 194.7256-.5538 5.8643,34.0544-13.6992,97.4296-19.6604,110.4736-57.5731,19.271-96.706,19.9137-154.8509,1.6614-9.9678-34.5557-27.1958-76.9318-20.2143-111.5812z" fill="#ececec" stroke="#000" stroke-linecap="round" stroke-linejoin="round" stroke-width="5.43288"/>
<path d="m2401.6942,171.17836c-3.4966.1657-4.5481,8.7953-1.5,17.25 1.8933.2864 3.8008.8241 5.6875,1.625-7.5727-3.0456-17.2501-1.3023-24.2188,6.3125-14.5823,18.0144-39.0694,67.0372-32.1874,141.5 .069.749.1427,1.4961.2187,2.25 71.2939,49.3949 141.9477,54.4766 225.75,14.0937-.066-2.7295 1.6619-12.7237 4.25-26.2812l6.5-33.125c9.5642-48.2408 21.357-107.9062 16.5937-107.9062-6.7184,2.2747-27.3939-13.7824-23.5-1.3799 1.4562,4.6383-6.3334,8.2011-5.1418,13.128 7.4148,30.6574 8.7631,65.8822-7.7019,92.9706l-11.7187-1.875-21.25-3.4063c-4.9885-.8913-5.4665,1.1118-5.9688,4.0938l-101.5312-13.6875c-.5823-9.8528-10.116-19.6546-23.1563-20.3437 .5237-1.9135 1.032-3.8337 1.5937-5.75 .1544-.5261.2681-1.0452.4376-1.5626 2.5064-7.6647 5.4874-17.2021 8.7812-26.3437 .171-.4746.359-.9341.5312-1.4063 2.3945-6.5297 4.8037-10.6184 2.9688-18-1.1644-4.7845-3.7695-8.5004-7.1562-11 .8474.5929 1.6867,1.2315 2.5,2 10.8121-.4017 21.8918-10.4586 4.1562-12 4.2757-11.77616-6.8845-9.2518-8.8125-5.3124-2.44-4.23526-4.5357-5.9192-6.125-5.8438zm-1.9375,97.25c2.46,1.6447 5.4318,5.8672 4.7812,10.0938l-.6562,4.2187c-.7457,4.5944-5.5975,7.8864-8.4062,8.3125-.049.01-.1067-.01-.1563,0 1.1444-7.3696 2.643-14.9389 4.4375-22.625zm22,26.3125 101.9688,19.3437c-.444,3.2437 1.3925,5.0878 4.9374,5.6563l11.0938,1.7813c-34.8405,24.3272-107.7942,29.7375-152.605.499 .074-6.6453.5293-13.7377 1.3438-21.125l6.5737,2.3134c10.9745,3.0653 21.6421-1.2693 26.6875-8.4687z" fill-opacity=".3137"/>
<g transform="translate(-30.17288,-989.15223)">
<path d="m2438.9201,1022.7569 128.6718-22.1127c13.2202,27.8461 34.5386,54.5766 45.2042,68.9688-68.687-41.4341-172.663-32.3656-224.9787,6.8826 5.3958-22.6194 24.67-43.5331 51.1027-53.7387z" fill="#fff"/>
<path d="m2432.8794,1027.0453c-2.2205-13.5541 3.8864-25.4371 7.3257-12.0632 9.2745,15.0386-40.6081,37.5316 16.156,33.23-1.6015-1.8927-9.2242,1.0398-9.2539,1.037 2.0394.7876 16.7049-1.9488 19.9394-18.1775 1.9-8.8525 13.6891-7.4436 14.8903,3.144 2.4118,11.7519-14.7072,11.3926-21.2162,12.6939-17.0552-.4615-61.2625,15.8102-74.638,29.4168 2.1716-17.3474 32.4357-29.4877 29.3519-54.0109z" fill="#dbdbdb"/>
<path d="m2414.9372,1020.0202 161.7773-13.0698c11.0825,22.9957 11.4532,39.1685 45.8145,70.002-25.5039-28.2137-153.781-59.7099-241.4616,3.1523 23.1921-28.0103 36.058-48.1132 33.8698-60.0845z" fill="none" stroke="#000" stroke-linecap="round" stroke-linejoin="round" stroke-width="5"/>
<path d="m2433.2596,916.7288c50.1346-77.5751 178.6611-52.7764 153.8221,11.1822 72.6413,16.2262 75.9173,140.3093-50.0994,90.2508-21.2672,7.4492-42.4227,15.1321-74.5713-.2298-116.8121,51.138-161.8851-117.5481-29.1514-101.2032z" fill="#fff"/>
<path d="m2484.7908,877.597c-15.7798,12.5915-22.4075,20.9311-32.2357,38.7152-1.9401,3.6388-1.5491,4.351-5.8534,4.1313-5.5472-.2909-9.4616-1.4726-11.9885-1.9455 13.7871-14.1466 20.5815-32.1208 50.0776-40.901z" fill="#dbdbdb"/>
<path d="m2341.0131,957.8277c3.037-19.5258 28.9948-44.6334 65.0705-42.1385-79.8645,21.354-50.0096,87.0582 1.2872,100.8972 18.3202,4.9425 40.6578,2.2911 59.9782-4.0443 25.9201-8.681 50.6855-11.2526 9.9794,4.0068-40.5467,15.0827-96.8161,22.6098-122.5476-6.8434-15.4693-11.29985-15.2058-36.80422-13.7677-51.8778z" fill="#dbdbdb"/>
<path d="m2553.6629,1015.6951c-3.5217-8.0265 6.3932-8.5272 12.8658-5.2371 11.6442,7.3871 25.1393,13.9734 59.7073,11.4441l-32.4767,7.5646c-34.1883-5.0906-37.5156-9.44-40.0964-13.7716z" fill="#dbdbdb"/>
<path d="m2527.5461,979.33428c-10.1092-4.5694-6.1729-10.8774 1.4355-12.3008 29.4439-3.89658 48.4569-13.48318 57.402-41.42148l2.5027,5.6539c-15.5517,41.69368-45.2096,53.72738-61.3402,48.06838z" fill="#dbdbdb"/>
<path d="m2523.703,866.0346c-32.6005.4004-68.8678,15.3136-89.8949,48.7126-37.6906-4.8091-63.821,3.0304-79.2838,16.9707-15.6726,14.1295-20.2999,34.2002-15.7268,52.76428s18.3666,35.76662 39.7095,44.17472c15.4895,6.102 35.2397,5.8083 57.6779-.1566-.3119-2.8347-1.1018-3.5291-2.0426-3.2644-21.1751,5.4887-39.5323,5.6931-53.8216.064-19.9449-7.8573-32.9507-24.0346-37.2735-41.58172s.064-36.33358 14.6171-49.45338 39.4016-20.815 76.9561-15.7205c.8933.1261 1.8555-.2853 2.2737-.9724 20.1905-33.033 55.4699-47.461 86.8899-47.8328 4.4887-.053 8.8794.1872 13.1556.6945 17.1039,2.0293 31.9959,8.4406 41.2253,18.2673s12.9825,23.0458 7.6875,39.4053c-.3194.9829.5069,2.1229 1.6783,2.3153 16.9894,2.9393 30.1358,12.5916 38.5727,24.8424s12.0593,27.08158 9.9613,39.98415-9.7126,23.74515-23.8475,28.82465c-10.4298,3.7481-24.6652,4.3532-43.1289-.133-5.1295-1.6222-1.7765,3.4186 1.3335,4.1292 18.004,4.0345 32.4165,3.4039 43.4737-.5696 15.6724-5.6319 24.1934-17.8892 26.446-31.74185s-1.5684-29.41897-10.5026-42.39195c-8.5771-12.4546-22.0218-22.4927-39.3306-26.0928 4.7386-16.5027.7512-30.5476-8.9597-40.8871-10.0723-10.724-26.0195-17.4984-44.0137-19.6332-4.4982-.5337-9.1215-.7756-13.8319-.7177z"/>
</g>
<path d="m2455.1519,83.17946c-13.2759-32.1597-35.6656-36.5132-35.6656-36.5132s12.4533,16.7753 1.174,12.1087c-17.4653-7.2258-72.9967,15.4184-72.9967,15.4184s73.5744-17.1261 107.4883,8.9861z" fill="#fff" fill-rule="evenodd" stroke="#000" stroke-linejoin="round" stroke-width="5"/>
<path d="m2485.593,86.17946c13.276-32.1597 35.6656-36.5132 35.6656-36.5132s-12.4533,16.7753-1.1739,12.1087c17.4653-7.2258 72.9967,15.4184 72.9967,15.4184s-73.5744-17.1261-107.4884,8.9861z" fill="#fff" fill-rule="evenodd" stroke="#000" stroke-linejoin="round" stroke-width="5"/>
<path d="m2473.4652,186.06976c-9.288,0-19.3836,10.3272-18.9798,16.8497s16.5569,33.6994 20.1913,33.6994 17.7683-26.6334 17.3645-34.2429-12.5186-16.8498-18.576-16.3062z" fill-opacity=".3137" fill-rule="evenodd"/>
<path d="m2471.3439,175.46086c-9.288,0-19.3836,9.3062-18.9798,15.1838s16.5568,30.3676 20.1913,30.3676 17.7683-24.0002 17.3645-30.8574-12.5186-15.1838-18.576-14.694z" fill="url(#linearGradient7629)" fill-rule="evenodd" stroke="#000" stroke-width="5"/>
<path d="m2335.3486,254.86176c-.8847.17-1.4729.3665-1.604.5946-.4462.7686 6.7044,1.3942 11.34,2.2122 2.3639.4171 4.8463.8031 7.3826,1.1589 .3359-1.4347.6746-2.8472 1.0309-4.2395l-8.4059-.3576c-1.956-.081-7.0861.1374-9.7436.6314zm-5.4883,26.4166c-.1838.035-.2701.098-.2467.2065 .2165,1.0311 7.9251,3.9428 10.4391,4.6447l7.5654,2.1102c.1426-1.4311.296-2.8234.4609-4.2254-2.3845-.4163-4.7129-.8282-6.966-1.1435-4.0791-.5705-9.9697-1.8588-11.2527-1.5925z" fill-opacity=".3137"/>
<g transform="matrix(.98203,-.18872,.18872,.98203,82.88962,513.44526)">
<path d="m2263.3057,168.07523c-.9009,0-1.5156.082-1.6874.2812-.5833.6706 6.3208,2.6344 10.7187,4.3125 2.2427.8557 4.6077,1.7033 7.0313,2.5313 .6006-1.3455 1.1998-2.6687 1.8124-3.9688l-8.1874-1.9375c-1.9056-.44841-6.9847-1.2023-9.6876-1.2187zm-10.375,24.90619c-.1871-4e-005-.2837.045-.2812.1563 .018,1.05341 7.0386,5.3675 9.375,6.5312l7.0312,3.5c.4101-1.37849.8235-2.71679 1.25-4.0625-2.2631-.85879-4.4719-1.70269-6.625-2.4375-3.8981-1.33009-9.4398-3.7069-10.75-3.6875z" fill="#b3b3b3" stroke="#000" stroke-linecap="round" stroke-linejoin="round" stroke-width="5"/>
<path d="m2311.9119,113.96653c14.1318-10.5182 32.7007-2.8287 33.5001,13.5234 .4089,7.5954-2.719,11.149-6.3027,17.1094-.2586.4312-.5167.8639-.7742,1.2977-4.9598,8.3558-9.6986,17.1387-13.6064,24.1926-.2637.4763-.4723.9833-.723,1.4707-13.0759,25.4236-22.3243,51.47509-26.2848,73.13239-2.8246,15.44591-4.5515,23.9378-7.6861,27.6381-7.1264,10.4339-24.4602,12.3853-33.1423-.892-5.0287-8.04889-4.2625-13.84869-3.5028-22.34129 .068-.7548.1388-1.50631.2122-2.2548 7.2945-74.4235 40.5901-117.9375 58.31-132.8762z" fill="#a40" stroke="#000" stroke-linecap="round" stroke-linejoin="round" stroke-width="5"/>
<path d="m2335.3937,140.00263c-31.812,50.4084-38.1799,76.48239-41.7648,97.73729-4.0252,55.9799-25.0771,32.457-19.393-7.35149 8.1178-40.8268 19.4257-70.599 42.6948-99.5339 20.0704-23.403 27.6677-5.6416 18.463,9.1481z" fill="#b74900"/>
<path d="m2263.805,289.43622c-.9919,4.272 6.054,13.2837 10.1735,1.4521 14.0417,9.53731 12.677-3.4809 5.4716-10.9003-4.783-4.6867-13.9352-4.6026-16.814-2.579-9.3492,6.9091-12.3198,17.1781 1.1689,12.0272z" fill="#a40" stroke="#000" stroke-linecap="round" stroke-linejoin="round" stroke-width="5"/>
<path d="m2341.2511,99.89494c2.6367-3.5045 14.0694-3.8936 7.6482,6.864 17.126,4.8607 4.3521,12.6718-6.3415,11.0259-3.0656-4.2604-6.9682-6.7058-10.9541-8.1159-2.0331-12.9133 4.5372-24.5566 9.6474-9.77399z" fill="#a40" stroke="#000" stroke-linecap="round" stroke-linejoin="round" stroke-width="5"/>
<path d="m2336.0392,142.01013c-1.8947,2.7172-2.9536-.7504-5.6065-3.5259-8.2647-8.6467-11.5588-9.0692-15.7573-10.9881-3.4919-1.5959-7.6575-1.6851-5.7627-4.4022s5.569-2.437 9.1047-.9404c5.9025,2.4985 11.2246,6.0364 15.7573,10.9881 2.5924,2.832 4.1592,6.1514 2.2645,8.8685z" fill="#803300"/>
<path d="m2325.8838,159.57113c-2.0226,2.8927-3.1485-.79591-5.9745-3.7466-8.8042-9.1927-12.316-9.6393-16.7908-11.6772-3.7217-1.6949-8.1629-1.7861-6.1403-4.6788s5.9399-2.598 9.7083-1.0088c6.2911,2.6532 11.9625,6.4127 16.7908,11.6772 2.7615,3.011 4.4291,6.5414 2.4065,9.4342z" fill="#803300"/>
<path d="m2317.0397,177.65973c-1.6764,3.1062-3.2192-.4283-6.3659-3.0343-9.8032-8.1188-13.3431-8.1585-18.0226-9.6681-3.892-1.2555-8.3143-.8351-6.6379-3.9413s5.6017-3.2641 9.5279-2.1189c6.5545,1.9117 12.6207,4.9939 18.0226,9.668 3.0895,2.6733 5.1523,5.9884 3.4759,9.0946z" fill="#803300"/>
<path d="m2310.8625,196.98453c-1.2036,3.5466-3.4158.011-7.1325-2.30531-11.5792-7.21549-15.2608-6.74489-20.3793-7.67279-4.2571-.7717-8.775.316-7.5715-3.2306s5.251-4.2831 9.5245-3.6338c7.1345,1.0841 13.9641,3.4836 20.3793,7.67269 3.669,2.39591 6.383,5.62321 5.1795,9.16981z" fill="#803300"/>
<path d="m2302.0467,216.69862c-1.3289,3.2699-3.2467-.076-6.6579-2.32469-10.6275-7.00541-14.1507-6.66011-18.9666-7.6522-4.0054-.8252-8.3557.073-7.0268-3.1966s5.2138-3.8536 9.2412-3.1419c6.7234,1.1882 13.0887,3.59293 18.9665,7.65229 3.3617,2.32171 5.7725,5.39311 4.4436,8.6631z" fill="#803300"/>
<path d="m2315.1593,175.09713c-7.8979-.6704-7.037,6.4745-4,8.375 3.1539,1.4996 5.8968,3.0584 8.0626,4.7187 2.2543,1.7283 4.9072,6.9286 3.3437,11.31249l-1.4375,4.03131c-1.5994,4.37119-6.9739,6.67409-9.8125,6.5625-3.0222-.11881-6.5288-.7833-10.3437-1.81251-7.2179-2.21639-8.7005,5.2141-2.8438,8.46881l10.5,5.21869c10.1988,5.08141 21.4678,2.83661 27.7812-3.28129l134.6876,53.37499 9.125-24.53119-136.25-45.75c1.298-9.8648-6.3561-21.4105-19.2188-24.4375z" fill="#b3b3b3" stroke="#000" stroke-linecap="round" stroke-linejoin="round" stroke-width="5"/>
<g transform="matrix(1,-.00163,.00163,1,682.15246,-723.10526)">
<path d="m1849.0983,1024.5302c8.7785,3.2087 18.4275-1.2748 21.6362-10.0533s-1.2737-18.43035-10.0523-21.63899l-10.7037-3.91234-65.7444-24.03043-20.225-7.3925c-5.312-2.04996-5.7205.56339-7.043,3.96605l-7.6717,20.98853c-1.3428,3.33211.091,5.62636 3.6172,6.91557l19.7385,7.21468 65.7445,24.03043z" fill="#af4600" stroke="#000" stroke-width="5"/>
<path d="m1594.6192,729.17017c0,35.90214-29.1044,65.00657-65.0065,65.00657s-65.0066-29.10443-65.0066-65.00657 29.1044-65.00658 65.0066-65.00658 65.0065,29.10444 65.0065,65.00658z" fill="#fff" stroke="#000" stroke-width="36.00498" transform="matrix(-.13043,-.04767,.04767,-.13043,2019.5835,1176.512)"/>
</g>
<path d="m2296.7213,236.47293c-1.5347,3.09479-3.3782.079-6.8278-1.85003-10.7471-6.00981-14.4328-5.5272-19.4033-6.2259-4.134-.58111-8.7067.4527-7.1719-2.64211s5.608-3.81499 9.7702-3.34019c6.9485.7928 13.4678,2.7305 19.4033,6.2259 3.3946,1.9991 5.7643,4.7375 4.2295,7.8323z" fill="#803300"/>
<path d="m2294.0868,254.39053c-.8419,3.3502-3.2842.7952-7.0651-.3565-11.7788-3.58801-15.2778-2.33301-20.2832-1.95921-4.1631.31091-8.4115,2.2931-7.5697-1.0572s4.669-4.91989 8.837-5.34069c6.9582-.70231 13.7404-.19461 20.2833,1.9593 3.742,1.2319 6.6396,3.40399 5.7977,6.7543z" fill="#803300"/>
</g>
<g transform="translate(2283.6227,34.89696)">
<path d="m322.17899,131.04476c-48.1112,17.30003 14.16343,94.14271-37.81914,161.19179-9.60838,12.39326 57.86796,2.09077 81.72278-66.58505 23.19831-66.78576 1.13236-107.53908-43.90364-94.60674z" fill="#784421" fill-rule="evenodd" stroke="#000" stroke-width="5"/>
<path d="m337.9375,128.65625c-.41261-.0006-.83163.0205-1.25.0312 16.21208,13.06454 23.07333,43.29712 14.78125,85.34375-11.02308,55.89475-53.57658,80.00799-67.71875,81.28125 4.59211,6.52643 60.97088-8.12575 82.34375-69.65625 20.29853-58.43754 5.92075-96.95013-28.15625-97z" fill-opacity=".3137" fill-rule="evenodd"/>
</g>
<path d="m2588.1265,156.89436c13.3886-4.609 27.221,7.5838 29.8651,14.1799-13.5122-3.4523-19.7196-4.4258-23.2183-1.3807 1.5067,3.3714 17.4082,6.7419 22.3373,28.8711-12.4288-8.6166-22.3036-18.5755-26.2724-14.4831 2.8816,5.0338 6.1995,14.4974 3.9635,23.8808-7.1414-9.4245-14.4387-19.3785-21.1415-19.6478" fill="#784421" fill-rule="evenodd" stroke="#000" stroke-linecap="round" stroke-linejoin="round" stroke-width="5"/>
</g>
</svg>
